<svg xmlns="http://www.w3.org/2000/svg" viewBox="0 0 2532.26 508.37"><defs></defs><g id="Capa_2" data-name="Capa 2"><g id="Capa_2-2" data-name="Capa 2"><path fill="#bce704" d="M272.36,188.53h165a12.55,12.55,0,0,1,12.55,12.55v99.75a12.55,12.55,0,0,1-12.55,12.56H264.26a42.8,42.8,0,0,1-17.16-4.5c-5.45-2.9-11.64-8-12.52-21.51a3.64,3.64,0,0,0-3.66-3.38h0c-27.73,0-33,91.63,33.34,89.9H437.39a12.55,12.55,0,0,1,12.55,12.56v97.42a20.62,20.62,0,0,1-20.62,20.62l-279.7,2.74A148.18,148.18,0,0,1,0,359.07V20.62A20.62,20.62,0,0,1,20.62,0H449.94V123a12.55,12.55,0,0,1-12.55,12.55H301.17A37.47,37.47,0,0,0,263.7,173v6.87A8.66,8.66,0,0,0,272.36,188.53Z"/><path fill="#bce704" d="M1465.83,140h101.09a0,0,0,0,1,0,0v336.6a30.65,30.65,0,0,1-30.65,30.65h-70.44a30.65,30.65,0,0,1-30.65-30.65V170.65A30.65,30.65,0,0,1,1465.83,140Z"/><path fill="#bce704" d="M2049.1,140h101.09a0,0,0,0,1,0,0v336.6a30.65,30.65,0,0,1-30.65,30.65H2049.1a30.65,30.65,0,0,1-30.65-30.65V170.65A30.65,30.65,0,0,1,2049.1,140Z"/><path fill="#bce704" d="M1074.4,140.76c-17.33,0-31.38,14.3-31.38,31.94V475.29c0,17.65,14,31.95,31.38,31.95h117.49c17.33,0,31.38-14.3,31.38-31.95V440.94c0-17.65,14-31.95,31.38-31.95h101.67c17.33,0,31.38-14.3,31.38-31.95V140.76ZM1236,315.24c-28.42,0-53.71-14.44-61.45-34.1-.78-1.5-1.5-3-2.13-4.6-3.66-9-4.49-28.92,10-28.72a2.4,2.4,0,0,1,2.32,2.24c.59,8.93,4.74,12.3,8.4,14.22a28.32,28.32,0,0,0,9.95,2.86c.8.08,1.36.1,1.55.12h23a1.67,1.67,0,0,1,.59.11h51.91c18.68,0,44.2,8.47,55.73,25.28a37.85,37.85,0,0,1,7.74,22.59Z"/><path fill="#bce704" d="M2336.66,313.89c0,26.36,16.47,57.33,60.25,56.22h115.88a30.56,30.56,0,0,1,18.52,28l1,92.19a15,15,0,0,1-15,15l-203.33,2a107.63,107.63,0,0,1-108.76-107.55l-1.79-201.78c-.28-32.52,26.36-59,59.32-59l269.57.13-1,141.14a30.76,30.76,0,0,1-31,30.56H2394.26a48.37,48.37,0,0,1-16.94-4.87c-6.23-3.27-13.29-9-14.31-24.24a4.13,4.13,0,0,0-4.16-3.81C2345.47,277.81,2336.66,294.61,2336.66,313.89Z"/><path fill="#bce704" d="M932.85,139.65H796.58c-16.3,0-31.52,7.35-40.61,19.59l-10.44,14-10.43-14C726,147,710.78,139.65,694.48,139.65H553c-24.23,0-43.87,15.28-43.87,34.11V507.24h64.72c31.7,0,57.41-20,57.41-44.63V340.12c0-12.22,6.36-23.28,16.65-31.28s24.53-13,40.23-13V487.74c0,10.77,11.23,19.5,25.08,19.5h60.45c16.17,0,29.28-10.19,29.28-22.76V295.88c15.72,0,29.94,4.95,40.23,13s16.67,19.06,16.67,31.28V462.61c0,24.65,25.7,44.63,57.4,44.63H982V177.83C982,156.74,960,139.65,932.85,139.65Z"/><path fill="#bce704" d="M1954.35,471.65a121.78,121.78,0,0,1-31.94-13.37c-26.94-16.15-46.64-41.51-71.38-60.5-4-3-10-13.37-.25-13.37h75.07c17.33,0,31.38-14.3,31.38-31.94V140.76h-313.3c-17.33,0-31.38,14.3-31.38,31.94V475.29c0,17.65,14,31.95,31.38,31.95h97.73c17.33,0,31.38-14.3,31.38-31.95,0,0,.8-7.94.8-39.65,17.73,17.93,37.27,33.05,58.27,47,30,19.9,63.21,31.5,99.37,22.88a85.19,85.19,0,0,0,25.4-10.36,70.42,70.42,0,0,0,13.55-10.36c1.47-1.51,4.8-4.63,4.81-7,0-3.88-3.89-3-7.14-3.43A121.56,121.56,0,0,1,1954.35,471.65ZM1802.79,316.2c-13.57,0-27.14.54-40.72.75-15.1.23-30.21,0-45.32-.22,0-.5,0-1,0-1.49h-.19a35.25,35.25,0,0,1,.21-3.86c2.6-24,29.22-42.79,61.69-42.79h83.79a23.53,23.53,0,0,0,3.37-1.42c3.66-1.92,7.81-5.29,8.4-14.22a2.38,2.38,0,0,1,2.32-2.24c14.47-.21,13.65,19.72,10,28.72a58.8,58.8,0,0,1-32.16,32C1837.91,318,1819.86,316.24,1802.79,316.2Z"/></g></g></svg>